<svg width="67" height="39" viewBox="0 0 67 39" fill="none" xmlns="http://www.w3.org/2000/svg">
<rect width="67" height="39" rx="19.5" fill="#F3603C"/>
<path d="M30.4228 25.224C28.9721 25.224 27.8895 24.7493 27.1748 23.8C26.4708 22.8507 26.1188 21.5973 26.1188 20.04V18.728C26.1188 17.1707 26.4708 15.9227 27.1748 14.984C27.8895 14.0453 28.9721 13.576 30.4228 13.576C31.8841 13.576 32.9668 14.0507 33.6708 15C34.3855 15.9387 34.7428 17.1813 34.7428 18.728V20.04C34.7428 21.5973 34.3855 22.8507 33.6708 23.8C32.9561 24.7493 31.8735 25.224 30.4228 25.224ZM30.4228 23.304C31.0628 23.304 31.5268 23.0373 31.8148 22.504C32.1135 21.96 32.2628 21.1653 32.2628 20.12V18.632C32.2628 17.5973 32.1135 16.8187 31.8148 16.296C31.5268 15.7627 31.0628 15.496 30.4228 15.496C29.7935 15.496 29.3295 15.7627 29.0308 16.296C28.7428 16.8187 28.5988 17.5973 28.5988 18.632V20.12C28.5988 21.1653 28.7428 21.96 29.0308 22.504C29.3295 23.0373 29.7935 23.304 30.4228 23.304ZM43.0346 23.064V25H36.3466V23.064H38.7466V16.44H38.6826L36.3306 18.584V15.944L38.6986 13.8H40.8746V23.064H43.0346Z" fill="white"/>
</svg>
